<svg width="24" height="24" viewBox="0 0 24 24" fill="none" xmlns="http://www.w3.org/2000/svg">
<path d="M4.33327 9.35308C4.94858 6.6685 6.99673 4.57236 9.61985 3.94264C11.5142 3.48787 13.4858 3.48787 15.3801 3.94264C18.0033 4.57236 20.0514 6.6685 20.6667 9.35308C21.1111 11.2919 21.1111 13.3096 20.6667 15.2483C20.0514 17.9329 18.0033 20.0291 15.3801 20.6588C13.4858 21.1135 11.5142 21.1135 9.61986 20.6588C6.99673 20.0291 4.94858 17.9329 4.33327 15.2483C3.88891 13.3096 3.88891 11.2919 4.33327 9.35308Z" stroke="#0A1436" stroke-width="1.5" stroke-linecap="round"/>
<path d="M8.57007 3V5.51375M16.4299 3V5.51375M9.55255 15.3174H12.5M9.55255 12.3009H15.4474" stroke="#0A1436" stroke-width="1.5" stroke-linecap="round"/>
</svg>
