<svg width="32" height="32" viewBox="0 0 32 32" fill="none" xmlns="http://www.w3.org/2000/svg">
<path d="M4.4705 11.9339C5.33917 8.23067 8.23068 5.33916 11.9339 4.4705C14.6083 3.84317 17.3917 3.84317 20.0661 4.4705C23.7693 5.33916 26.6608 8.23068 27.5295 11.9339C28.1568 14.6083 28.1568 17.3917 27.5295 20.0661C26.6608 23.7693 23.7693 26.6608 20.0661 27.5295C17.3917 28.1568 14.6083 28.1568 11.9339 27.5295C8.23068 26.6608 5.33917 23.7693 4.4705 20.0661C3.84317 17.3917 3.84317 14.6083 4.4705 11.9339Z" stroke="#0A1436" stroke-width="1.5"/>
<path d="M18.3571 13.643L13.6431 18.357M18.3571 18.357L13.6431 13.643" stroke="#0A1436" stroke-width="1.5" stroke-linecap="round"/>
</svg>
