<svg width="25" height="24" viewBox="0 0 25 24" fill="none" xmlns="http://www.w3.org/2000/svg">
<rect x="13.7075" y="7" width="4" height="4" rx="2" stroke="#0A1436" stroke-width="1.5"/>
<path d="M5.42561 17.2014L7.1645 15.4625C8.78951 13.8375 11.4242 13.8375 13.0492 15.4625L14.7881 17.2014M14.7881 17.2014L15.4924 16.497C16.7901 15.1994 18.9218 15.2961 20.0966 16.7059L20.5096 17.2014M14.7881 17.2014L17.3887 19.802M4.0604 15.0496C3.58989 13.0437 3.58989 10.9563 4.0604 8.95043C4.71189 6.17301 6.88053 4.00437 9.65795 3.35288C11.6638 2.88237 13.7513 2.88237 15.7571 3.35288C18.5345 4.00437 20.7032 6.17301 21.3546 8.95044C21.8251 10.9563 21.8251 13.0437 21.3546 15.0496C20.7031 17.827 18.5345 19.9956 15.7571 20.6471C13.7513 21.1176 11.6638 21.1176 9.65795 20.6471C6.88053 19.9956 4.71189 17.827 4.0604 15.0496Z" stroke="#0A1436" stroke-width="1.5" stroke-linecap="round" stroke-linejoin="round"/>
</svg>
