<svg width="11" height="19" viewBox="0 0 11 19" fill="none" xmlns="http://www.w3.org/2000/svg">
<path fill-rule="evenodd" clip-rule="evenodd" d="M7.91667 1.91667C7.91667 2.83333 7.16667 3.58333 6.25 3.58333C5.33333 3.58333 4.58333 2.83333 4.58333 1.91667C4.58333 1 5.33333 0.25 6.25 0.25C7.16667 0.25 7.91667 1 7.91667 1.91667ZM0.833333 18.1667L3.16667 6.41667L1.66667 7V9.83333H0V5.91667L4.20833 4.13333C5.01667 3.79167 5.95 4.09167 6.41667 4.83333L7.25 6.16667C7.91667 7.33333 9.25 8.16667 10.8333 8.16667V9.83333C9 9.83333 7.33333 9 6.25 7.75L5.75 10.25L7.5 11.9167V18.1667H5.83333V13.1667L4.08333 11.5L2.58333 18.1667H0.833333Z" fill="#00AF70"/>
</svg>
