<svg width="12" height="13" viewBox="0 0 12 13" fill="none" xmlns="http://www.w3.org/2000/svg">
<path d="M1.33325 11.241C1.33325 9.63226 2.4648 8.26197 4.00261 8.00844L4.14113 7.9856C5.37253 7.78258 6.62731 7.78258 7.8587 7.9856L7.99722 8.00844C9.53503 8.26197 10.6666 9.63226 10.6666 11.241C10.6666 11.9363 10.1209 12.5 9.44783 12.5H2.552C1.87891 12.5 1.33325 11.9363 1.33325 11.241Z" stroke="#0A1436"/>
<path d="M8.72215 3.125C8.72215 4.57475 7.50337 5.75 5.99993 5.75C4.49649 5.75 3.27771 4.57475 3.27771 3.125C3.27771 1.67525 4.49649 0.5 5.99993 0.5C7.50337 0.5 8.72215 1.67525 8.72215 3.125Z" stroke="#0A1436"/>
</svg>
