<svg width="20" height="20" viewBox="0 0 20 20" fill="none" xmlns="http://www.w3.org/2000/svg">
<g clip-path="url(#clip0_5551_1036)">
<path d="M9.99163 1.6665C5.39163 1.6665 1.66663 5.39984 1.66663 9.99984C1.66663 14.5998 5.39163 18.3332 9.99163 18.3332C14.6 18.3332 18.3333 14.5998 18.3333 9.99984C18.3333 5.39984 14.6 1.6665 9.99163 1.6665ZM9.99996 16.6665C6.31663 16.6665 3.33329 13.6832 3.33329 9.99984C3.33329 6.3165 6.31663 3.33317 9.99996 3.33317C13.6833 3.33317 16.6666 6.3165 16.6666 9.99984C16.6666 13.6832 13.6833 16.6665 9.99996 16.6665Z" fill="#0A1436"/>
<path d="M10.4166 5.8335H9.16663V10.8335L13.5416 13.4585L14.1666 12.4335L10.4166 10.2085V5.8335Z" fill="#0A1436"/>
</g>
<defs>
<clipPath id="clip0_5551_1036">
<rect width="20" height="20" fill="white"/>
</clipPath>
</defs>
</svg>
